<svg xmlns="http://www.w3.org/2000/svg" xmlns:xlink="http://www.w3.org/1999/xlink" width="0" height="0" style="position:absolute">

    <symbol id="close" viewBox="0 0 29 28"> 
		<path fill-rule="evenodd"
		d="M1.065,0.772 C1.846,-0.009 3.112,-0.009 3.893,0.772 L27.228,24.106 C28.009,24.887 28.009,26.155 27.228,26.934 C26.447,27.716 25.181,27.716 24.400,26.934 L1.065,3.601 C0.284,2.820 0.284,1.553 1.065,0.772 Z"/>
		<path fill-rule="evenodd"
		d="M1.772,24.106 L25.107,0.772 C25.888,-0.009 27.154,-0.009 27.935,0.772 C28.716,1.553 28.716,2.820 27.935,3.601 L4.601,26.934 C3.819,27.716 2.553,27.716 1.772,26.934 C0.991,26.155 0.991,24.887 1.772,24.106 Z"/>
    </symbol>

    <symbol id="bb-logo" viewBox="0 0 36.8 19.7">
        <path d="M2.3 3.5C.1 7.1 0 14.7 0 14.7c.4 2.1 2.1 2.4 2.9 2.6.8.2 2.1 0 2.1 0s-.1 1.2.2 1.7c.3.5.8.9 1.5.6.7-.4 1.4-.9 3.2-1.3 1.2-.3 4.5.2 7.1-2.8 2.6-3 .9-5.7.3-6.3-.6-.6-3.3-1.3-2.1-1.9 1.5-.6 2.1-2 2.1-2.8 0-.6-1.9-3.1-3.4-3.9C13.2.3 10.6 0 10 0h-.2c-1 0-5.4.1-7.5 3.5m4.8 4.8c.3-1.6 2.4-4.2 3.6-5.1 1.2-.9 1.7-.1 1.7.1 0 .3.7 2-1.2 3.2-1.8 1.3-2.8 1.2-2.8 1.8 0 .6.9 1.6 2.4 1.6 1.4 0 2.1-.4 2.3 0 .2.4 0 2.7-1 3.4C10 14.7 6.9 15 6.9 15s0-5.1.2-6.7"></path><path d="M20.7 3.5c-2.2 3.6-2.3 11.2-2.3 11.2.4 2.1 2.1 2.4 2.9 2.6.8.2 2.1 0 2.1 0s-.1 1.2.2 1.7c.3.5.8.9 1.5.6.7-.4 1.4-.9 3.2-1.3 1.2-.3 4.5.2 7.1-2.8 2.6-3 .9-5.7.3-6.3-.6-.6-3.3-1.3-2.1-1.9 1.5-.6 2.1-2 2.1-2.8 0-.6-1.9-3.1-3.4-3.9-.7-.3-3.3-.6-4-.6h-.1c-1 0-5.4.1-7.5 3.5m4.8 4.8c.3-1.6 2.4-4.2 3.6-5.1 1.2-.9 1.7-.1 1.7.1 0 .3.7 2-1.2 3.2-1.9 1.2-2.8 1.1-2.8 1.7 0 .6.9 1.6 2.4 1.6 1.4 0 2.1-.4 2.3 0 .2.4 0 2.7-1 3.4-2.2 1.4-5.2 1.7-5.2 1.7s-.1-5 .2-6.6"></path>
    </symbol>

    <symbol id="fb-logo" viewBox="0 0 30 30">
        <path d="M22 16l1-5-5 .001V7c0-1.544.784-2 3-2h2V0h-4c-4.072 0-7 2.435-7 7v4H7v5h5v14h6V16h4z"></path>
    </symbol>

    <symbol id="ok-logo" viewBox="0 0 30 30">
        <path d="M22 15c-1 0-3 2-7 2s-6-2-7-2a2 2 0 0 0-2 2c0 1 .568 1.481 1 1.734C8.185 19.427 12 21 12 21l-4.25 5.438S7 27.373 7 28a2 2 0 0 0 2 2c1.021 0 1.484-.656 1.484-.656S14.993 23.993 15 24c.007-.007 4.516 5.344 4.516 5.344S19.979 30 21 30a2 2 0 0 0 2-2c0-.627-.75-1.562-.75-1.562L18 21s3.815-1.573 5-2.266c.432-.253 1-.734 1-1.734a2 2 0 0 0-2-2zM15 0a7 7 0 1 0 0 14 7 7 0 0 0 0-14zm0 10.5a3.5 3.5 0 1 1-.001-6.999A3.5 3.5 0 0 1 15 10.5z"></path>
    </symbol>

    <symbol id="vk-logo-new" viewBox="0 0 14 17">
        <path fill-rule="evenodd" d="M13.027 9.021c-.652-.682-1.52-1.133-2.604-1.354v-.092c.753-.304 1.344-.779 1.771-1.425.427-.647.641-1.384.641-2.213 0-.715-.155-1.346-.464-1.894-.31-.547-.779-.985-1.406-1.312A5.769 5.769 0 0 0 9.101.132C8.438.037 7.464-.01 6.178-.01H-.008v16.998h7.012c1.216 0 2.217-.107 3.006-.32a6.226 6.226 0 0 0 2.171-1.074c.556-.419 1-.948 1.329-1.587.329-.64.494-1.382.494-2.228 0-1.158-.326-2.077-.977-2.758zm-4.865-3.25c-.133.282-.376.503-.729.663a2.562 2.562 0 0 1-.935.24c-.302.015-.829.023-1.582.023h-.553v-3.6h.306c.784 0 1.374.006 1.77.017a2.85 2.85 0 0 1 1.029.2c.306.13.531.339.676.629.146.289.218.571.218.845 0 .374-.067.701-.2.983zm1.025 7.039c-.184.324-.476.571-.875.738a3.78 3.78 0 0 1-1.34.31c-.439.015-1.23.023-2.374.023h-.235V9.606h.811c.783 0 1.408.006 1.874.018.466.012.833.067 1.099.166.439.152.768.377.987.676.219.298.329.71.329 1.237 0 .413-.092.781-.276 1.107z"></path>
    </symbol>

</svg>